<mxfile host="Electron" agent="Mozilla/5.0 (Macintosh; Intel Mac OS X 10_15_7) AppleWebKit/537.36 (KHTML, like Gecko) draw.io/24.7.17 Chrome/128.0.6613.36 Electron/32.0.1 Safari/537.36" version="24.7.17">
  <diagram name="Page-1" id="JYRK8FRZFXrLs3yggFOm">
    <mxGraphModel dx="2308" dy="898" grid="1" gridSize="10" guides="1" tooltips="1" connect="1" arrows="1" fold="1" page="1" pageScale="1" pageWidth="1169" pageHeight="827" math="0" shadow="0">
      <root>
        <mxCell id="0" />
        <mxCell id="1" parent="0" />
        <mxCell id="y6IDSUT-3BoTtGrC2y06-6" value="" style="triangle;whiteSpace=wrap;html=1;rotation=-90;fillColor=none;" vertex="1" parent="1">
          <mxGeometry x="210" y="220" width="120" height="280" as="geometry" />
        </mxCell>
        <mxCell id="y6IDSUT-3BoTtGrC2y06-7" value="" style="rounded=0;whiteSpace=wrap;html=1;fillColor=none;strokeColor=#331A00;" vertex="1" parent="1">
          <mxGeometry x="840" y="70" width="350" height="200" as="geometry" />
        </mxCell>
        <mxCell id="y6IDSUT-3BoTtGrC2y06-8" value="" style="rounded=0;whiteSpace=wrap;html=1;fillColor=none;strokeColor=#331A00;" vertex="1" parent="1">
          <mxGeometry x="940" y="570" width="400" height="180" as="geometry" />
        </mxCell>
        <mxCell id="y6IDSUT-3BoTtGrC2y06-5" value="" style="rounded=0;whiteSpace=wrap;html=1;fillColor=none;" vertex="1" parent="1">
          <mxGeometry x="130" y="420" width="280" height="300" as="geometry" />
        </mxCell>
        <mxCell id="y6IDSUT-3BoTtGrC2y06-1" value="" style="shape=image;verticalLabelPosition=bottom;labelBackgroundColor=default;verticalAlign=top;aspect=fixed;imageAspect=0;image=https://cdn-icons-png.flaticon.com/512/2752/2752877.png;fontColor=default;" vertex="1" parent="1">
          <mxGeometry x="270" y="584" width="112" height="112" as="geometry" />
        </mxCell>
        <mxCell id="y6IDSUT-3BoTtGrC2y06-2" value="" style="shape=image;verticalLabelPosition=bottom;labelBackgroundColor=default;verticalAlign=top;aspect=fixed;imageAspect=0;image=https://cdn-icons-png.flaticon.com/512/2752/2752877.png;fontColor=default;" vertex="1" parent="1">
          <mxGeometry x="860" y="158" width="112" height="112" as="geometry" />
        </mxCell>
        <mxCell id="y6IDSUT-3BoTtGrC2y06-3" value="" style="shape=image;verticalLabelPosition=bottom;labelBackgroundColor=default;verticalAlign=top;aspect=fixed;imageAspect=0;image=https://cdn-icons-png.flaticon.com/512/2752/2752877.png;fontColor=default;" vertex="1" parent="1">
          <mxGeometry x="950" y="650" width="112" height="112" as="geometry" />
        </mxCell>
        <mxCell id="y6IDSUT-3BoTtGrC2y06-10" value="" style="shape=image;verticalLabelPosition=bottom;labelBackgroundColor=default;verticalAlign=top;aspect=fixed;imageAspect=0;image=https://mutelcor.com/de/wp-content/uploads/2023/03/1631788636-logo-lora.png;" vertex="1" parent="1">
          <mxGeometry x="560" y="340" width="98.92" height="65" as="geometry" />
        </mxCell>
        <mxCell id="y6IDSUT-3BoTtGrC2y06-11" value="" style="shape=image;verticalLabelPosition=bottom;labelBackgroundColor=default;verticalAlign=top;aspect=fixed;imageAspect=0;image=https://mutelcor.com/de/wp-content/uploads/2023/03/1631788636-logo-lora.png;" vertex="1" parent="1">
          <mxGeometry x="620" y="685" width="98.92" height="65" as="geometry" />
        </mxCell>
        <mxCell id="y6IDSUT-3BoTtGrC2y06-12" value="" style="endArrow=classic;html=1;rounded=0;dashed=1;dashPattern=12 12;" edge="1" parent="1">
          <mxGeometry width="50" height="50" relative="1" as="geometry">
            <mxPoint x="800" y="290" as="sourcePoint" />
            <mxPoint x="450" y="590" as="targetPoint" />
          </mxGeometry>
        </mxCell>
        <mxCell id="y6IDSUT-3BoTtGrC2y06-13" value="" style="endArrow=classic;html=1;rounded=0;dashed=1;dashPattern=12 12;" edge="1" parent="1">
          <mxGeometry width="50" height="50" relative="1" as="geometry">
            <mxPoint x="880" y="700" as="sourcePoint" />
            <mxPoint x="450" y="650" as="targetPoint" />
          </mxGeometry>
        </mxCell>
        <mxCell id="y6IDSUT-3BoTtGrC2y06-14" value="" style="image;points=[];aspect=fixed;html=1;align=center;shadow=0;dashed=0;image=img/lib/allied_telesis/security/Router_VPN.svg;" vertex="1" parent="1">
          <mxGeometry x="154.2" y="470" width="55.800000000000004" height="39.6" as="geometry" />
        </mxCell>
        <mxCell id="y6IDSUT-3BoTtGrC2y06-16" value="" style="shape=image;verticalLabelPosition=bottom;labelBackgroundColor=default;verticalAlign=top;aspect=fixed;imageAspect=0;image=https://upload.wikimedia.org/wikipedia/commons/thumb/a/ae/WiFi_Logo.svg/640px-WiFi_Logo.svg.png;" vertex="1" parent="1">
          <mxGeometry x="230" y="539.41" width="49.66" height="29.41" as="geometry" />
        </mxCell>
        <mxCell id="y6IDSUT-3BoTtGrC2y06-17" value="" style="endArrow=classic;html=1;rounded=0;dashed=1;dashPattern=12 12;" edge="1" parent="1">
          <mxGeometry width="50" height="50" relative="1" as="geometry">
            <mxPoint x="268" y="611.72" as="sourcePoint" />
            <mxPoint x="200" y="528.28" as="targetPoint" />
          </mxGeometry>
        </mxCell>
        <mxCell id="y6IDSUT-3BoTtGrC2y06-18" value="" style="endArrow=classic;html=1;rounded=0;dashed=1;dashPattern=12 12;entryX=0.5;entryY=1;entryDx=0;entryDy=0;" edge="1" parent="1" target="y6IDSUT-3BoTtGrC2y06-26">
          <mxGeometry width="50" height="50" relative="1" as="geometry">
            <mxPoint x="154.2" y="455.44000000000005" as="sourcePoint" />
            <mxPoint x="80" y="230" as="targetPoint" />
          </mxGeometry>
        </mxCell>
        <mxCell id="y6IDSUT-3BoTtGrC2y06-19" value="" style="ellipse;shape=cloud;whiteSpace=wrap;html=1;fillColor=none;" vertex="1" parent="1">
          <mxGeometry x="-160" y="20" width="470" height="248" as="geometry" />
        </mxCell>
        <mxCell id="y6IDSUT-3BoTtGrC2y06-20" value="Horse Paddock" style="text;html=1;align=center;verticalAlign=middle;whiteSpace=wrap;rounded=0;" vertex="1" parent="1">
          <mxGeometry x="840" y="40" width="100" height="30" as="geometry" />
        </mxCell>
        <mxCell id="y6IDSUT-3BoTtGrC2y06-21" value="Horse Paddock" style="text;html=1;align=center;verticalAlign=middle;whiteSpace=wrap;rounded=0;" vertex="1" parent="1">
          <mxGeometry x="940" y="539.41" width="100" height="30" as="geometry" />
        </mxCell>
        <mxCell id="y6IDSUT-3BoTtGrC2y06-22" value="Mikrocontroller" style="text;html=1;align=center;verticalAlign=middle;whiteSpace=wrap;rounded=0;" vertex="1" parent="1">
          <mxGeometry x="860" y="150" width="110" height="30" as="geometry" />
        </mxCell>
        <mxCell id="y6IDSUT-3BoTtGrC2y06-23" value="Mikrocontroller" style="text;html=1;align=center;verticalAlign=middle;whiteSpace=wrap;rounded=0;" vertex="1" parent="1">
          <mxGeometry x="952" y="640" width="110" height="30" as="geometry" />
        </mxCell>
        <mxCell id="y6IDSUT-3BoTtGrC2y06-24" value="Mikrocontroller" style="text;html=1;align=center;verticalAlign=middle;whiteSpace=wrap;rounded=0;" vertex="1" parent="1">
          <mxGeometry x="270.0000000000001" y="680" width="110" height="30" as="geometry" />
        </mxCell>
        <mxCell id="y6IDSUT-3BoTtGrC2y06-25" value="Access Point" style="text;html=1;align=center;verticalAlign=middle;whiteSpace=wrap;rounded=0;" vertex="1" parent="1">
          <mxGeometry x="127.10000000000011" y="500" width="110" height="30" as="geometry" />
        </mxCell>
        <mxCell id="y6IDSUT-3BoTtGrC2y06-26" value="API Server" style="text;html=1;align=center;verticalAlign=middle;whiteSpace=wrap;rounded=0;" vertex="1" parent="1">
          <mxGeometry x="-44.999999999999886" y="183" width="110" height="30" as="geometry" />
        </mxCell>
        <mxCell id="y6IDSUT-3BoTtGrC2y06-27" value="" style="sketch=0;outlineConnect=0;fontColor=#232F3E;gradientColor=none;fillColor=#232F3D;strokeColor=none;dashed=0;verticalLabelPosition=bottom;verticalAlign=top;align=center;html=1;fontSize=12;fontStyle=0;aspect=fixed;pointerEvents=1;shape=mxgraph.aws4.traditional_server;" vertex="1" parent="1">
          <mxGeometry x="-12.5" y="105" width="45" height="78" as="geometry" />
        </mxCell>
        <mxCell id="y6IDSUT-3BoTtGrC2y06-29" value="" style="sketch=0;pointerEvents=1;shadow=0;dashed=0;html=1;strokeColor=none;fillColor=#331A00;aspect=fixed;labelPosition=center;verticalLabelPosition=bottom;verticalAlign=top;align=center;outlineConnect=0;shape=mxgraph.vvd.nsx_dashboard;fontColor=#331A00;" vertex="1" parent="1">
          <mxGeometry x="121.13" y="120" width="67.74" height="63" as="geometry" />
        </mxCell>
        <mxCell id="y6IDSUT-3BoTtGrC2y06-30" value="Dashboard" style="text;html=1;align=center;verticalAlign=middle;whiteSpace=wrap;rounded=0;" vertex="1" parent="1">
          <mxGeometry x="100.00000000000011" y="183" width="110" height="30" as="geometry" />
        </mxCell>
        <mxCell id="y6IDSUT-3BoTtGrC2y06-31" value="" style="endArrow=classic;html=1;rounded=0;dashed=1;dashPattern=12 12;startArrow=classic;startFill=1;" edge="1" parent="1">
          <mxGeometry width="50" height="50" relative="1" as="geometry">
            <mxPoint x="110" y="150" as="sourcePoint" />
            <mxPoint x="40" y="150" as="targetPoint" />
          </mxGeometry>
        </mxCell>
      </root>
    </mxGraphModel>
  </diagram>
</mxfile>
